<svg width="496" height="496" viewBox="0 0 496 496" fill="none" xmlns="http://www.w3.org/2000/svg">
<path fill-rule="evenodd" clip-rule="evenodd" d="M203.634 1.16361C108.877 10.9074 21.9245 85.4516 6.09385 170.515L5.44028 174.028L8.1425 171.833C9.62907 170.625 16.1234 165.354 22.5754 160.121C66.402 124.569 93.7276 113.798 118.793 122.194C147.641 131.857 152.053 150.733 134.174 187.982C125.381 206.299 129.288 205.128 153.056 182.321C156.442 179.072 165.349 171.87 172.847 166.316C180.346 160.763 190.623 152.971 195.684 149.002C234.422 118.624 273.518 98.0279 292.579 97.9559C316.466 97.8663 322.528 121.811 316.286 191.594C307.763 286.855 341.15 312.264 417.288 268.464C452.58 248.162 450.207 251.338 450.111 224.53C449.64 92.3173 334.234 -12.2673 203.634 1.16361ZM439.812 71.3366C434.617 75.0518 434.514 73.975 440.992 83.6687C513.79 192.592 491.087 341.514 388.933 425.152C274.35 518.966 102.005 497.134 15.7451 377.878L13.9014 375.33L9.85426 378.109C4.07159 382.082 4.06103 381.936 10.8403 390.801C93.5578 498.955 249.067 527.552 365.837 456.083C486.831 382.027 530.166 227.739 465.332 101.837C459.58 90.6652 445.779 68.223 444.65 68.202C444.406 68.1976 442.229 69.6081 439.812 71.3366ZM57.1765 163.388C50.1817 165.645 33.3764 175.297 7.26815 192.052C-0.218357 196.857 0.000669263 195.836 0.000669263 225.848C0.000669263 253.235 1.74321 266.831 8.02111 288.426C9.97652 295.153 8.24542 297.617 57.2547 218.382C77.2117 186.119 77.1695 156.936 57.1765 163.388ZM226.945 183.149C207.618 190.141 171.81 217.893 73.8894 301.769C56.0813 317.023 43.2159 326.473 33.2066 331.651C26.7167 335.008 26.9384 334.117 30.9293 340.789C136.387 517.127 405.156 470.921 446.056 269.422C449.745 251.246 450.848 251.267 428.379 269.074C316.336 357.863 286.138 370.436 268.511 335.634C264.06 326.848 264.089 327.192 263.441 272.836C262.941 230.742 262.568 220.075 261.383 213.811C256.516 188.099 244.018 176.972 226.945 183.149Z" fill="#2951D5"/>
</svg>
